<mxfile host="app.diagrams.net" modified="2020-11-13T09:22:41.995Z" agent="5.0 (Windows NT 10.0; Win64; x64) AppleWebKit/537.36 (KHTML, like Gecko) Chrome/80.0.3987.149 Safari/537.36" etag="OQxcQ9AtxA_95p9AawcA" version="13.9.7" type="github">
  <diagram name="Page-1" id="74e2e168-ea6b-b213-b513-2b3c1d86103e">
    <mxGraphModel dx="1303" dy="743" grid="1" gridSize="10" guides="1" tooltips="1" connect="1" arrows="1" fold="1" page="1" pageScale="1" pageWidth="1100" pageHeight="850" background="#ffffff" math="0" shadow="0">
      <root>
        <mxCell id="0" />
        <mxCell id="1" parent="0" />
        <mxCell id="77e6c97f196da883-1" value="&lt;font style=&quot;font-size: 24px&quot;&gt;自动化数据链路图&lt;/font&gt;" style="swimlane;html=1;childLayout=stackLayout;startSize=40;rounded=0;shadow=0;labelBackgroundColor=none;strokeWidth=1;fontFamily=Verdana;fontSize=8;align=center;fillColor=none;" parent="1" vertex="1">
          <mxGeometry x="10" y="10" width="1050" height="760" as="geometry">
            <mxRectangle x="70" y="40" width="130" height="20" as="alternateBounds" />
          </mxGeometry>
        </mxCell>
        <mxCell id="77e6c97f196da883-2" value="传感器终端" style="swimlane;html=1;startSize=30;" parent="77e6c97f196da883-1" vertex="1">
          <mxGeometry y="40" width="160" height="720" as="geometry" />
        </mxCell>
        <mxCell id="kV-ekZ2A5MsylM_IOJq5-18" value="" style="rounded=1;whiteSpace=wrap;html=1;shadow=0;fillColor=none;dashed=1;" parent="77e6c97f196da883-2" vertex="1">
          <mxGeometry x="20" y="80" width="120" height="140" as="geometry" />
        </mxCell>
        <mxCell id="kV-ekZ2A5MsylM_IOJq5-19" value="" style="rounded=1;whiteSpace=wrap;html=1;shadow=0;fillColor=none;dashed=1;" parent="77e6c97f196da883-2" vertex="1">
          <mxGeometry x="20" y="247.5" width="120" height="140" as="geometry" />
        </mxCell>
        <mxCell id="77e6c97f196da883-8" value="厂家A/传感器1" style="rounded=1;whiteSpace=wrap;html=1;shadow=0;labelBackgroundColor=none;strokeWidth=1;fontFamily=Verdana;fontSize=8;align=center;arcSize=50;" parent="77e6c97f196da883-2" vertex="1">
          <mxGeometry x="30" y="90" width="100" height="35" as="geometry" />
        </mxCell>
        <mxCell id="kV-ekZ2A5MsylM_IOJq5-12" value="厂家A/传感器2" style="rounded=1;whiteSpace=wrap;html=1;shadow=0;labelBackgroundColor=none;strokeWidth=1;fontFamily=Verdana;fontSize=8;align=center;arcSize=50;" parent="77e6c97f196da883-2" vertex="1">
          <mxGeometry x="30" y="130" width="100" height="35" as="geometry" />
        </mxCell>
        <mxCell id="kV-ekZ2A5MsylM_IOJq5-13" value="厂家A/传感器3" style="rounded=1;whiteSpace=wrap;html=1;shadow=0;labelBackgroundColor=none;strokeWidth=1;fontFamily=Verdana;fontSize=8;align=center;arcSize=50;" parent="77e6c97f196da883-2" vertex="1">
          <mxGeometry x="30" y="170" width="100" height="35" as="geometry" />
        </mxCell>
        <mxCell id="kV-ekZ2A5MsylM_IOJq5-14" value="厂家B/传感器1" style="rounded=1;whiteSpace=wrap;html=1;shadow=0;labelBackgroundColor=none;strokeWidth=1;fontFamily=Verdana;fontSize=8;align=center;arcSize=50;" parent="77e6c97f196da883-2" vertex="1">
          <mxGeometry x="30" y="260" width="100" height="35" as="geometry" />
        </mxCell>
        <mxCell id="kV-ekZ2A5MsylM_IOJq5-15" value="厂家B/传感器2" style="rounded=1;whiteSpace=wrap;html=1;shadow=0;labelBackgroundColor=none;strokeWidth=1;fontFamily=Verdana;fontSize=8;align=center;arcSize=50;" parent="77e6c97f196da883-2" vertex="1">
          <mxGeometry x="30" y="300" width="100" height="35" as="geometry" />
        </mxCell>
        <mxCell id="kV-ekZ2A5MsylM_IOJq5-16" value="厂家B/传感器3" style="rounded=1;whiteSpace=wrap;html=1;shadow=0;labelBackgroundColor=none;strokeWidth=1;fontFamily=Verdana;fontSize=8;align=center;arcSize=50;" parent="77e6c97f196da883-2" vertex="1">
          <mxGeometry x="30" y="340" width="100" height="35" as="geometry" />
        </mxCell>
        <mxCell id="kV-ekZ2A5MsylM_IOJq5-21" value="" style="rounded=1;whiteSpace=wrap;html=1;shadow=0;fillColor=none;dashed=1;" parent="77e6c97f196da883-2" vertex="1">
          <mxGeometry x="20" y="430" width="120" height="140" as="geometry" />
        </mxCell>
        <mxCell id="kV-ekZ2A5MsylM_IOJq5-22" value="厂家C/传感器1" style="rounded=1;whiteSpace=wrap;html=1;shadow=0;labelBackgroundColor=none;strokeWidth=1;fontFamily=Verdana;fontSize=8;align=center;arcSize=50;" parent="77e6c97f196da883-2" vertex="1">
          <mxGeometry x="30" y="442.5" width="100" height="35" as="geometry" />
        </mxCell>
        <mxCell id="kV-ekZ2A5MsylM_IOJq5-23" value="厂家C/传感器2" style="rounded=1;whiteSpace=wrap;html=1;shadow=0;labelBackgroundColor=none;strokeWidth=1;fontFamily=Verdana;fontSize=8;align=center;arcSize=50;" parent="77e6c97f196da883-2" vertex="1">
          <mxGeometry x="30" y="482.5" width="100" height="35" as="geometry" />
        </mxCell>
        <mxCell id="kV-ekZ2A5MsylM_IOJq5-24" value="厂家C/传感器3" style="rounded=1;whiteSpace=wrap;html=1;shadow=0;labelBackgroundColor=none;strokeWidth=1;fontFamily=Verdana;fontSize=8;align=center;arcSize=50;" parent="77e6c97f196da883-2" vertex="1">
          <mxGeometry x="30" y="522.5" width="100" height="35" as="geometry" />
        </mxCell>
        <mxCell id="kV-ekZ2A5MsylM_IOJq5-25" value="&lt;font style=&quot;font-size: 18px&quot;&gt;。&lt;br&gt;。&lt;br&gt;。&lt;br&gt;&lt;/font&gt;" style="text;html=1;align=center;verticalAlign=middle;resizable=0;points=[];autosize=1;" parent="77e6c97f196da883-2" vertex="1">
          <mxGeometry x="65" y="610" width="30" height="50" as="geometry" />
        </mxCell>
        <mxCell id="77e6c97f196da883-26" style="edgeStyle=orthogonalEdgeStyle;rounded=1;html=1;labelBackgroundColor=none;startArrow=none;startFill=0;startSize=5;endArrow=classicThin;endFill=1;endSize=5;jettySize=auto;orthogonalLoop=1;strokeWidth=1;fontFamily=Verdana;fontSize=8" parent="77e6c97f196da883-1" source="77e6c97f196da883-8" target="77e6c97f196da883-11" edge="1">
          <mxGeometry relative="1" as="geometry" />
        </mxCell>
        <mxCell id="107ba76e4e335f99-1" style="edgeStyle=orthogonalEdgeStyle;rounded=1;html=1;labelBackgroundColor=none;startArrow=none;startFill=0;startSize=5;endArrow=classicThin;endFill=1;endSize=5;jettySize=auto;orthogonalLoop=1;strokeWidth=1;fontFamily=Verdana;fontSize=8;entryX=0;entryY=0.5;entryDx=0;entryDy=0;" parent="77e6c97f196da883-1" source="77e6c97f196da883-17" target="kV-ekZ2A5MsylM_IOJq5-82" edge="1">
          <mxGeometry relative="1" as="geometry">
            <mxPoint x="680" y="470" as="targetPoint" />
            <Array as="points">
              <mxPoint x="650" y="445" />
              <mxPoint x="650" y="580" />
            </Array>
          </mxGeometry>
        </mxCell>
        <mxCell id="77e6c97f196da883-3" value="第三方数据库" style="swimlane;html=1;startSize=30;" parent="77e6c97f196da883-1" vertex="1">
          <mxGeometry x="160" y="40" width="180" height="720" as="geometry" />
        </mxCell>
        <mxCell id="kV-ekZ2A5MsylM_IOJq5-44" style="edgeStyle=orthogonalEdgeStyle;rounded=1;orthogonalLoop=1;jettySize=auto;html=1;exitX=0.5;exitY=0;exitDx=0;exitDy=0;entryX=0.5;entryY=1;entryDx=0;entryDy=0;" parent="77e6c97f196da883-3" source="77e6c97f196da883-11" target="kV-ekZ2A5MsylM_IOJq5-43" edge="1">
          <mxGeometry relative="1" as="geometry" />
        </mxCell>
        <mxCell id="77e6c97f196da883-11" value="厂家A数据库&lt;br&gt;（表a:原始数据&lt;br&gt;&amp;nbsp; 表b:合规数据）" style="rounded=1;whiteSpace=wrap;html=1;shadow=0;labelBackgroundColor=none;strokeWidth=1;fontFamily=Verdana;fontSize=8;align=center;" parent="77e6c97f196da883-3" vertex="1">
          <mxGeometry x="20" y="117.5" width="120" height="60" as="geometry" />
        </mxCell>
        <mxCell id="kV-ekZ2A5MsylM_IOJq5-41" value="&lt;font style=&quot;font-size: 18px&quot;&gt;。&lt;br&gt;。&lt;br&gt;。&lt;br&gt;&lt;/font&gt;" style="text;html=1;align=center;verticalAlign=middle;resizable=0;points=[];autosize=1;" parent="77e6c97f196da883-3" vertex="1">
          <mxGeometry x="75" y="600" width="30" height="50" as="geometry" />
        </mxCell>
        <mxCell id="kV-ekZ2A5MsylM_IOJq5-43" value="&lt;font color=&quot;#ff0000&quot;&gt;国家数据库&lt;/font&gt;" style="ellipse;whiteSpace=wrap;html=1;rounded=0;shadow=0;dashed=1;fillColor=none;" parent="77e6c97f196da883-3" vertex="1">
          <mxGeometry x="60" y="40" width="120" height="47.5" as="geometry" />
        </mxCell>
        <mxCell id="kV-ekZ2A5MsylM_IOJq5-45" value="b上传国家" style="text;html=1;align=center;verticalAlign=middle;resizable=0;points=[];autosize=1;" parent="77e6c97f196da883-3" vertex="1">
          <mxGeometry x="75" y="97.5" width="70" height="20" as="geometry" />
        </mxCell>
        <mxCell id="kV-ekZ2A5MsylM_IOJq5-50" style="edgeStyle=orthogonalEdgeStyle;rounded=1;html=1;labelBackgroundColor=none;startArrow=none;startFill=0;startSize=5;endArrow=classicThin;endFill=1;endSize=5;jettySize=auto;orthogonalLoop=1;strokeWidth=1;fontFamily=Verdana;fontSize=8" parent="77e6c97f196da883-3" target="kV-ekZ2A5MsylM_IOJq5-51" edge="1">
          <mxGeometry relative="1" as="geometry">
            <mxPoint x="-30" y="277.5" as="sourcePoint" />
            <Array as="points">
              <mxPoint x="-5" y="278" />
              <mxPoint x="-5" y="318" />
            </Array>
          </mxGeometry>
        </mxCell>
        <mxCell id="kV-ekZ2A5MsylM_IOJq5-58" style="edgeStyle=orthogonalEdgeStyle;rounded=1;orthogonalLoop=1;jettySize=auto;html=1;exitX=0.5;exitY=0;exitDx=0;exitDy=0;" parent="77e6c97f196da883-3" source="kV-ekZ2A5MsylM_IOJq5-51" target="kV-ekZ2A5MsylM_IOJq5-52" edge="1">
          <mxGeometry relative="1" as="geometry" />
        </mxCell>
        <mxCell id="kV-ekZ2A5MsylM_IOJq5-51" value="厂家B数据库&lt;br&gt;（表a:原始数据&lt;br&gt;&amp;nbsp; 表b:合规数据）" style="rounded=1;whiteSpace=wrap;html=1;shadow=0;labelBackgroundColor=none;strokeWidth=1;fontFamily=Verdana;fontSize=8;align=center;" parent="77e6c97f196da883-3" vertex="1">
          <mxGeometry x="20" y="287.5" width="120" height="60" as="geometry" />
        </mxCell>
        <mxCell id="kV-ekZ2A5MsylM_IOJq5-52" value="&lt;font color=&quot;#ff3333&quot;&gt;国家数据库&lt;/font&gt;" style="ellipse;whiteSpace=wrap;html=1;rounded=0;shadow=0;dashed=1;fillColor=none;" parent="77e6c97f196da883-3" vertex="1">
          <mxGeometry x="60" y="210" width="120" height="47.5" as="geometry" />
        </mxCell>
        <mxCell id="kV-ekZ2A5MsylM_IOJq5-53" value="b上传国家" style="text;html=1;align=center;verticalAlign=middle;resizable=0;points=[];autosize=1;" parent="77e6c97f196da883-3" vertex="1">
          <mxGeometry x="75" y="267.5" width="70" height="20" as="geometry" />
        </mxCell>
        <mxCell id="kV-ekZ2A5MsylM_IOJq5-54" style="edgeStyle=orthogonalEdgeStyle;rounded=0;orthogonalLoop=1;jettySize=auto;html=1;exitX=1;exitY=0.5;exitDx=0;exitDy=0;entryX=0;entryY=0.5;entryDx=0;entryDy=0;" parent="77e6c97f196da883-3" target="kV-ekZ2A5MsylM_IOJq5-51" edge="1">
          <mxGeometry relative="1" as="geometry">
            <mxPoint x="-30" y="317.5" as="sourcePoint" />
          </mxGeometry>
        </mxCell>
        <mxCell id="kV-ekZ2A5MsylM_IOJq5-55" style="rounded=1;orthogonalLoop=1;jettySize=auto;html=1;exitX=1;exitY=0.5;exitDx=0;exitDy=0;entryX=0;entryY=0.5;entryDx=0;entryDy=0;edgeStyle=orthogonalEdgeStyle;" parent="77e6c97f196da883-3" target="kV-ekZ2A5MsylM_IOJq5-51" edge="1">
          <mxGeometry relative="1" as="geometry">
            <mxPoint x="-30" y="357.5" as="sourcePoint" />
          </mxGeometry>
        </mxCell>
        <mxCell id="kV-ekZ2A5MsylM_IOJq5-65" style="edgeStyle=orthogonalEdgeStyle;rounded=1;html=1;labelBackgroundColor=none;startArrow=none;startFill=0;startSize=5;endArrow=classicThin;endFill=1;endSize=5;jettySize=auto;orthogonalLoop=1;strokeWidth=1;fontFamily=Verdana;fontSize=8" parent="77e6c97f196da883-3" target="kV-ekZ2A5MsylM_IOJq5-66" edge="1">
          <mxGeometry relative="1" as="geometry">
            <mxPoint x="-30" y="457.5" as="sourcePoint" />
            <Array as="points">
              <mxPoint x="-5" y="458" />
              <mxPoint x="-5" y="498" />
            </Array>
          </mxGeometry>
        </mxCell>
        <mxCell id="kV-ekZ2A5MsylM_IOJq5-71" style="edgeStyle=orthogonalEdgeStyle;rounded=1;orthogonalLoop=1;jettySize=auto;html=1;exitX=0.5;exitY=0;exitDx=0;exitDy=0;entryX=0.5;entryY=1;entryDx=0;entryDy=0;" parent="77e6c97f196da883-3" source="kV-ekZ2A5MsylM_IOJq5-66" target="kV-ekZ2A5MsylM_IOJq5-67" edge="1">
          <mxGeometry relative="1" as="geometry" />
        </mxCell>
        <mxCell id="kV-ekZ2A5MsylM_IOJq5-66" value="厂家C数据库&lt;br&gt;（表a:原始数据&lt;br&gt;&amp;nbsp; 表b:合规数据）" style="rounded=1;whiteSpace=wrap;html=1;shadow=0;labelBackgroundColor=none;strokeWidth=1;fontFamily=Verdana;fontSize=8;align=center;" parent="77e6c97f196da883-3" vertex="1">
          <mxGeometry x="20" y="467.5" width="120" height="60" as="geometry" />
        </mxCell>
        <mxCell id="kV-ekZ2A5MsylM_IOJq5-67" value="&lt;font color=&quot;#ff3333&quot;&gt;国家数据库&lt;/font&gt;" style="ellipse;whiteSpace=wrap;html=1;rounded=0;shadow=0;dashed=1;fillColor=none;" parent="77e6c97f196da883-3" vertex="1">
          <mxGeometry x="60" y="390" width="120" height="47.5" as="geometry" />
        </mxCell>
        <mxCell id="kV-ekZ2A5MsylM_IOJq5-68" value="b上传国家" style="text;html=1;align=center;verticalAlign=middle;resizable=0;points=[];autosize=1;" parent="77e6c97f196da883-3" vertex="1">
          <mxGeometry x="75" y="447.5" width="70" height="20" as="geometry" />
        </mxCell>
        <mxCell id="kV-ekZ2A5MsylM_IOJq5-69" style="edgeStyle=orthogonalEdgeStyle;rounded=0;orthogonalLoop=1;jettySize=auto;html=1;exitX=1;exitY=0.5;exitDx=0;exitDy=0;entryX=0;entryY=0.5;entryDx=0;entryDy=0;" parent="77e6c97f196da883-3" target="kV-ekZ2A5MsylM_IOJq5-66" edge="1">
          <mxGeometry relative="1" as="geometry">
            <mxPoint x="-30" y="497.5" as="sourcePoint" />
          </mxGeometry>
        </mxCell>
        <mxCell id="kV-ekZ2A5MsylM_IOJq5-70" style="rounded=1;orthogonalLoop=1;jettySize=auto;html=1;exitX=1;exitY=0.5;exitDx=0;exitDy=0;entryX=0;entryY=0.5;entryDx=0;entryDy=0;edgeStyle=orthogonalEdgeStyle;" parent="77e6c97f196da883-3" target="kV-ekZ2A5MsylM_IOJq5-66" edge="1">
          <mxGeometry relative="1" as="geometry">
            <mxPoint x="-30" y="537.5" as="sourcePoint" />
          </mxGeometry>
        </mxCell>
        <mxCell id="77e6c97f196da883-4" value="自动化数据拦截程序" style="swimlane;html=1;startSize=30;" parent="77e6c97f196da883-1" vertex="1">
          <mxGeometry x="340" y="40" width="160" height="720" as="geometry" />
        </mxCell>
        <mxCell id="77e6c97f196da883-13" value="txt文件" style="rhombus;whiteSpace=wrap;html=1;rounded=0;shadow=0;labelBackgroundColor=none;strokeWidth=1;fontFamily=Verdana;fontSize=8;align=center;" parent="77e6c97f196da883-4" vertex="1">
          <mxGeometry x="30" y="160" width="80" height="60" as="geometry" />
        </mxCell>
        <mxCell id="kV-ekZ2A5MsylM_IOJq5-73" value="txt文件" style="rhombus;whiteSpace=wrap;html=1;rounded=0;shadow=0;labelBackgroundColor=none;strokeWidth=1;fontFamily=Verdana;fontSize=8;align=center;" parent="77e6c97f196da883-4" vertex="1">
          <mxGeometry x="30" y="290" width="80" height="60" as="geometry" />
        </mxCell>
        <mxCell id="kV-ekZ2A5MsylM_IOJq5-74" style="edgeStyle=orthogonalEdgeStyle;rounded=1;orthogonalLoop=1;jettySize=auto;html=1;exitX=0;exitY=0.5;exitDx=0;exitDy=0;entryX=0.929;entryY=0.625;entryDx=0;entryDy=0;entryPerimeter=0;startArrow=classic;startFill=1;" parent="77e6c97f196da883-4" source="kV-ekZ2A5MsylM_IOJq5-73" edge="1">
          <mxGeometry relative="1" as="geometry">
            <mxPoint x="-39.97000000000003" y="280" as="targetPoint" />
            <Array as="points">
              <mxPoint x="10" y="320" />
              <mxPoint x="10" y="280" />
            </Array>
          </mxGeometry>
        </mxCell>
        <mxCell id="kV-ekZ2A5MsylM_IOJq5-75" value="txt文件" style="rhombus;whiteSpace=wrap;html=1;rounded=0;shadow=0;labelBackgroundColor=none;strokeWidth=1;fontFamily=Verdana;fontSize=8;align=center;" parent="77e6c97f196da883-4" vertex="1">
          <mxGeometry x="30" y="430" width="80" height="60" as="geometry" />
        </mxCell>
        <mxCell id="kV-ekZ2A5MsylM_IOJq5-76" style="edgeStyle=orthogonalEdgeStyle;rounded=1;orthogonalLoop=1;jettySize=auto;html=1;exitX=0;exitY=0.5;exitDx=0;exitDy=0;entryX=0.929;entryY=0.625;entryDx=0;entryDy=0;entryPerimeter=0;startArrow=classic;startFill=1;" parent="77e6c97f196da883-4" source="kV-ekZ2A5MsylM_IOJq5-75" edge="1">
          <mxGeometry relative="1" as="geometry">
            <mxPoint x="-39.97000000000003" y="460" as="targetPoint" />
          </mxGeometry>
        </mxCell>
        <mxCell id="kV-ekZ2A5MsylM_IOJq5-77" value="&lt;font style=&quot;font-size: 18px&quot;&gt;。&lt;br&gt;。&lt;br&gt;。&lt;br&gt;&lt;/font&gt;" style="text;html=1;align=center;verticalAlign=middle;resizable=0;points=[];autosize=1;" parent="77e6c97f196da883-4" vertex="1">
          <mxGeometry x="55" y="600" width="30" height="50" as="geometry" />
        </mxCell>
        <mxCell id="77e6c97f196da883-5" value="自动化服务+数据接口服务" style="swimlane;html=1;startSize=30;" parent="77e6c97f196da883-1" vertex="1">
          <mxGeometry x="500" y="40" width="160" height="720" as="geometry" />
        </mxCell>
        <mxCell id="77e6c97f196da883-17" value="OPC Server" style="rounded=1;whiteSpace=wrap;html=1;shadow=0;labelBackgroundColor=none;strokeWidth=1;fontFamily=Verdana;fontSize=8;align=center;" parent="77e6c97f196da883-5" vertex="1">
          <mxGeometry x="30" y="350" width="100" height="110" as="geometry" />
        </mxCell>
        <mxCell id="kV-ekZ2A5MsylM_IOJq5-81" value="&lt;span style=&quot;font-size: 8px&quot;&gt;RealAutomateService&lt;/span&gt;" style="rounded=1;whiteSpace=wrap;html=1;shadow=0;labelBackgroundColor=none;strokeWidth=1;fontFamily=Verdana;fontSize=8;align=center;" parent="77e6c97f196da883-5" vertex="1">
          <mxGeometry x="10" y="120" width="140" height="60" as="geometry" />
        </mxCell>
        <mxCell id="77e6c97f196da883-6" value="rh关系型数据库" style="swimlane;html=1;startSize=30;" parent="77e6c97f196da883-1" vertex="1">
          <mxGeometry x="660" y="40" width="160" height="720" as="geometry" />
        </mxCell>
        <mxCell id="kV-ekZ2A5MsylM_IOJq5-88" style="edgeStyle=orthogonalEdgeStyle;rounded=1;orthogonalLoop=1;jettySize=auto;html=1;exitX=0.5;exitY=0;exitDx=0;exitDy=0;dashed=1;dashPattern=1 1;startArrow=none;startFill=0;" parent="77e6c97f196da883-6" source="kV-ekZ2A5MsylM_IOJq5-82" target="kV-ekZ2A5MsylM_IOJq5-84" edge="1">
          <mxGeometry relative="1" as="geometry" />
        </mxCell>
        <mxCell id="kV-ekZ2A5MsylM_IOJq5-82" value="落盘到txt文件&lt;br&gt;（188服务器）" style="rounded=1;whiteSpace=wrap;html=1;shadow=0;fillColor=none;" parent="77e6c97f196da883-6" vertex="1">
          <mxGeometry x="30" y="500" width="90" height="80" as="geometry" />
        </mxCell>
        <mxCell id="kV-ekZ2A5MsylM_IOJq5-84" value="映射到Oracle外表&lt;br&gt;（188服务器）" style="rounded=1;whiteSpace=wrap;html=1;shadow=0;fillColor=none;arcSize=41;dashed=1;" parent="77e6c97f196da883-6" vertex="1">
          <mxGeometry x="30" y="410" width="120" height="60" as="geometry" />
        </mxCell>
        <mxCell id="kV-ekZ2A5MsylM_IOJq5-90" value="矿山云图Oracle数据库&lt;br&gt;（249服务器）" style="rounded=1;whiteSpace=wrap;html=1;shadow=0;fillColor=none;" parent="77e6c97f196da883-6" vertex="1">
          <mxGeometry x="15" y="50" width="130" height="60" as="geometry" />
        </mxCell>
        <mxCell id="kV-ekZ2A5MsylM_IOJq5-92" value="辅助运输Oracle数据库&lt;br&gt;（174服务器）" style="rounded=1;whiteSpace=wrap;html=1;shadow=0;fillColor=none;" parent="77e6c97f196da883-6" vertex="1">
          <mxGeometry x="15" y="170" width="130" height="60" as="geometry" />
        </mxCell>
        <mxCell id="kV-ekZ2A5MsylM_IOJq5-93" value="产量平衡Oracle数据库&lt;br&gt;（252服务器）" style="rounded=1;whiteSpace=wrap;html=1;shadow=0;fillColor=none;" parent="77e6c97f196da883-6" vertex="1">
          <mxGeometry x="15" y="270" width="135" height="60" as="geometry" />
        </mxCell>
        <mxCell id="kV-ekZ2A5MsylM_IOJq5-94" value="&lt;font style=&quot;font-size: 18px&quot;&gt;。&lt;br&gt;。&lt;br&gt;。&lt;br&gt;&lt;/font&gt;" style="text;html=1;align=center;verticalAlign=middle;resizable=0;points=[];autosize=1;" parent="77e6c97f196da883-6" vertex="1">
          <mxGeometry x="60" y="610" width="30" height="50" as="geometry" />
        </mxCell>
        <mxCell id="77e6c97f196da883-7" value="Lane 6" style="swimlane;html=1;startSize=30;gradientColor=#ffffff;" parent="77e6c97f196da883-1" vertex="1">
          <mxGeometry x="820" y="40" width="230" height="720" as="geometry">
            <mxRectangle x="800" y="40" width="30" height="775" as="alternateBounds" />
          </mxGeometry>
        </mxCell>
        <mxCell id="kV-ekZ2A5MsylM_IOJq5-98" value="矿山云图系统" style="shape=cube;whiteSpace=wrap;html=1;boundedLbl=1;backgroundOutline=1;darkOpacity=0.05;darkOpacity2=0.1;rounded=0;shadow=0;fillColor=none;" parent="77e6c97f196da883-7" vertex="1">
          <mxGeometry x="55" y="90" width="120" height="80" as="geometry" />
        </mxCell>
        <mxCell id="kV-ekZ2A5MsylM_IOJq5-100" value="辅助运输系统" style="shape=cube;whiteSpace=wrap;html=1;boundedLbl=1;backgroundOutline=1;darkOpacity=0.05;darkOpacity2=0.1;rounded=0;shadow=0;fillColor=none;" parent="77e6c97f196da883-7" vertex="1">
          <mxGeometry x="55" y="280" width="120" height="80" as="geometry" />
        </mxCell>
        <mxCell id="kV-ekZ2A5MsylM_IOJq5-101" value="产量平衡系统" style="shape=cube;whiteSpace=wrap;html=1;boundedLbl=1;backgroundOutline=1;darkOpacity=0.05;darkOpacity2=0.1;rounded=0;shadow=0;fillColor=none;" parent="77e6c97f196da883-7" vertex="1">
          <mxGeometry x="55" y="450" width="120" height="80" as="geometry" />
        </mxCell>
        <mxCell id="kV-ekZ2A5MsylM_IOJq5-111" value="&lt;font style=&quot;font-size: 18px&quot;&gt;。&lt;br&gt;。&lt;br&gt;。&lt;br&gt;&lt;/font&gt;" style="text;html=1;align=center;verticalAlign=middle;resizable=0;points=[];autosize=1;" parent="77e6c97f196da883-7" vertex="1">
          <mxGeometry x="100" y="610" width="30" height="50" as="geometry" />
        </mxCell>
        <mxCell id="kV-ekZ2A5MsylM_IOJq5-26" style="edgeStyle=orthogonalEdgeStyle;rounded=0;orthogonalLoop=1;jettySize=auto;html=1;exitX=1;exitY=0.5;exitDx=0;exitDy=0;entryX=0;entryY=0.5;entryDx=0;entryDy=0;" parent="77e6c97f196da883-1" source="kV-ekZ2A5MsylM_IOJq5-12" target="77e6c97f196da883-11" edge="1">
          <mxGeometry relative="1" as="geometry" />
        </mxCell>
        <mxCell id="kV-ekZ2A5MsylM_IOJq5-28" style="rounded=1;orthogonalLoop=1;jettySize=auto;html=1;exitX=1;exitY=0.5;exitDx=0;exitDy=0;entryX=0;entryY=0.5;entryDx=0;entryDy=0;edgeStyle=orthogonalEdgeStyle;" parent="77e6c97f196da883-1" source="kV-ekZ2A5MsylM_IOJq5-13" target="77e6c97f196da883-11" edge="1">
          <mxGeometry relative="1" as="geometry" />
        </mxCell>
        <mxCell id="kV-ekZ2A5MsylM_IOJq5-72" style="edgeStyle=orthogonalEdgeStyle;rounded=1;orthogonalLoop=1;jettySize=auto;html=1;exitX=0;exitY=0.5;exitDx=0;exitDy=0;entryX=0.929;entryY=0.625;entryDx=0;entryDy=0;entryPerimeter=0;startArrow=classic;startFill=1;" parent="77e6c97f196da883-1" source="77e6c97f196da883-13" target="kV-ekZ2A5MsylM_IOJq5-45" edge="1">
          <mxGeometry relative="1" as="geometry">
            <Array as="points">
              <mxPoint x="350" y="230" />
              <mxPoint x="350" y="150" />
            </Array>
          </mxGeometry>
        </mxCell>
        <mxCell id="kV-ekZ2A5MsylM_IOJq5-78" style="edgeStyle=orthogonalEdgeStyle;rounded=1;orthogonalLoop=1;jettySize=auto;html=1;exitX=1;exitY=0.5;exitDx=0;exitDy=0;entryX=0;entryY=0.5;entryDx=0;entryDy=0;startArrow=none;startFill=0;dashed=1;" parent="77e6c97f196da883-1" source="kV-ekZ2A5MsylM_IOJq5-73" target="77e6c97f196da883-17" edge="1">
          <mxGeometry relative="1" as="geometry">
            <Array as="points">
              <mxPoint x="450" y="445" />
            </Array>
          </mxGeometry>
        </mxCell>
        <mxCell id="kV-ekZ2A5MsylM_IOJq5-79" style="edgeStyle=orthogonalEdgeStyle;rounded=1;orthogonalLoop=1;jettySize=auto;html=1;exitX=1;exitY=0.5;exitDx=0;exitDy=0;dashed=1;startArrow=none;startFill=0;" parent="77e6c97f196da883-1" source="kV-ekZ2A5MsylM_IOJq5-75" edge="1">
          <mxGeometry relative="1" as="geometry">
            <mxPoint x="530" y="470" as="targetPoint" />
            <Array as="points">
              <mxPoint x="480" y="500" />
              <mxPoint x="480" y="470" />
              <mxPoint x="530" y="470" />
            </Array>
          </mxGeometry>
        </mxCell>
        <mxCell id="kV-ekZ2A5MsylM_IOJq5-80" style="edgeStyle=orthogonalEdgeStyle;rounded=1;orthogonalLoop=1;jettySize=auto;html=1;exitX=1;exitY=0.5;exitDx=0;exitDy=0;entryX=0;entryY=0.25;entryDx=0;entryDy=0;dashed=1;startArrow=none;startFill=0;" parent="77e6c97f196da883-1" source="77e6c97f196da883-13" target="77e6c97f196da883-17" edge="1">
          <mxGeometry relative="1" as="geometry">
            <Array as="points">
              <mxPoint x="480" y="230" />
              <mxPoint x="480" y="418" />
            </Array>
          </mxGeometry>
        </mxCell>
        <mxCell id="kV-ekZ2A5MsylM_IOJq5-86" style="edgeStyle=orthogonalEdgeStyle;rounded=1;orthogonalLoop=1;jettySize=auto;html=1;exitX=0.5;exitY=0;exitDx=0;exitDy=0;entryX=0;entryY=0.5;entryDx=0;entryDy=0;dashed=1;startArrow=none;startFill=0;dashPattern=1 1;" parent="77e6c97f196da883-1" source="77e6c97f196da883-13" target="kV-ekZ2A5MsylM_IOJq5-81" edge="1">
          <mxGeometry relative="1" as="geometry">
            <Array as="points">
              <mxPoint x="410" y="190" />
            </Array>
          </mxGeometry>
        </mxCell>
        <mxCell id="kV-ekZ2A5MsylM_IOJq5-87" style="edgeStyle=orthogonalEdgeStyle;rounded=1;orthogonalLoop=1;jettySize=auto;html=1;exitX=1;exitY=0;exitDx=0;exitDy=0;entryX=0.143;entryY=1;entryDx=0;entryDy=0;entryPerimeter=0;dashed=1;dashPattern=1 1;startArrow=none;startFill=0;" parent="77e6c97f196da883-1" source="kV-ekZ2A5MsylM_IOJq5-73" target="kV-ekZ2A5MsylM_IOJq5-81" edge="1">
          <mxGeometry relative="1" as="geometry" />
        </mxCell>
        <mxCell id="kV-ekZ2A5MsylM_IOJq5-91" style="edgeStyle=orthogonalEdgeStyle;rounded=1;orthogonalLoop=1;jettySize=auto;html=1;exitX=1;exitY=0.5;exitDx=0;exitDy=0;startArrow=none;startFill=0;entryX=0;entryY=0.5;entryDx=0;entryDy=0;" parent="77e6c97f196da883-1" source="77e6c97f196da883-11" target="kV-ekZ2A5MsylM_IOJq5-90" edge="1">
          <mxGeometry relative="1" as="geometry">
            <Array as="points">
              <mxPoint x="300" y="160" />
              <mxPoint x="390" y="160" />
              <mxPoint x="390" y="120" />
            </Array>
          </mxGeometry>
        </mxCell>
        <mxCell id="kV-ekZ2A5MsylM_IOJq5-105" value="抽数程序" style="edgeLabel;html=1;align=center;verticalAlign=middle;resizable=0;points=[];" parent="kV-ekZ2A5MsylM_IOJq5-91" vertex="1" connectable="0">
          <mxGeometry x="0.0147" y="2" relative="1" as="geometry">
            <mxPoint as="offset" />
          </mxGeometry>
        </mxCell>
        <mxCell id="kV-ekZ2A5MsylM_IOJq5-102" style="edgeStyle=orthogonalEdgeStyle;orthogonalLoop=1;jettySize=auto;html=1;exitX=0;exitY=0;exitDx=0;exitDy=30;exitPerimeter=0;entryX=1;entryY=0.5;entryDx=0;entryDy=0;curved=1;startArrow=classic;startFill=1;strokeColor=#000099;" parent="77e6c97f196da883-1" source="kV-ekZ2A5MsylM_IOJq5-98" target="kV-ekZ2A5MsylM_IOJq5-90" edge="1">
          <mxGeometry relative="1" as="geometry" />
        </mxCell>
        <mxCell id="kV-ekZ2A5MsylM_IOJq5-103" style="edgeStyle=orthogonalEdgeStyle;curved=1;orthogonalLoop=1;jettySize=auto;html=1;exitX=0;exitY=0;exitDx=0;exitDy=30;exitPerimeter=0;entryX=1;entryY=0.5;entryDx=0;entryDy=0;strokeColor=#000099;" parent="77e6c97f196da883-1" source="kV-ekZ2A5MsylM_IOJq5-98" target="kV-ekZ2A5MsylM_IOJq5-81" edge="1">
          <mxGeometry relative="1" as="geometry">
            <Array as="points">
              <mxPoint x="650" y="160" />
            </Array>
          </mxGeometry>
        </mxCell>
        <mxCell id="kV-ekZ2A5MsylM_IOJq5-104" style="edgeStyle=orthogonalEdgeStyle;curved=1;orthogonalLoop=1;jettySize=auto;html=1;exitX=0;exitY=0;exitDx=0;exitDy=30;exitPerimeter=0;entryX=0.87;entryY=-0.036;entryDx=0;entryDy=0;entryPerimeter=0;strokeColor=#000099;" parent="77e6c97f196da883-1" source="kV-ekZ2A5MsylM_IOJq5-98" target="77e6c97f196da883-17" edge="1">
          <mxGeometry relative="1" as="geometry" />
        </mxCell>
        <mxCell id="kV-ekZ2A5MsylM_IOJq5-106" style="edgeStyle=orthogonalEdgeStyle;curved=1;orthogonalLoop=1;jettySize=auto;html=1;exitX=0;exitY=0;exitDx=0;exitDy=30;exitPerimeter=0;entryX=0.908;entryY=0.017;entryDx=0;entryDy=0;entryPerimeter=0;strokeColor=#000099;" parent="77e6c97f196da883-1" source="kV-ekZ2A5MsylM_IOJq5-98" target="kV-ekZ2A5MsylM_IOJq5-84" edge="1">
          <mxGeometry relative="1" as="geometry">
            <Array as="points">
              <mxPoint x="830" y="160" />
              <mxPoint x="830" y="451" />
            </Array>
          </mxGeometry>
        </mxCell>
        <mxCell id="kV-ekZ2A5MsylM_IOJq5-108" style="edgeStyle=orthogonalEdgeStyle;curved=1;orthogonalLoop=1;jettySize=auto;html=1;exitX=0;exitY=0;exitDx=0;exitDy=30;exitPerimeter=0;entryX=1;entryY=0.75;entryDx=0;entryDy=0;startArrow=none;startFill=0;strokeColor=#009900;" parent="77e6c97f196da883-1" source="kV-ekZ2A5MsylM_IOJq5-100" target="kV-ekZ2A5MsylM_IOJq5-92" edge="1">
          <mxGeometry relative="1" as="geometry" />
        </mxCell>
        <mxCell id="kV-ekZ2A5MsylM_IOJq5-109" style="edgeStyle=orthogonalEdgeStyle;curved=1;orthogonalLoop=1;jettySize=auto;html=1;exitX=0;exitY=0;exitDx=0;exitDy=30;exitPerimeter=0;entryX=1;entryY=0.5;entryDx=0;entryDy=0;startArrow=none;startFill=0;strokeColor=#009900;" parent="77e6c97f196da883-1" source="kV-ekZ2A5MsylM_IOJq5-100" target="kV-ekZ2A5MsylM_IOJq5-84" edge="1">
          <mxGeometry relative="1" as="geometry" />
        </mxCell>
        <mxCell id="kV-ekZ2A5MsylM_IOJq5-110" style="edgeStyle=orthogonalEdgeStyle;curved=1;orthogonalLoop=1;jettySize=auto;html=1;exitX=1;exitY=0.5;exitDx=0;exitDy=0;entryX=0;entryY=0;entryDx=0;entryDy=30;entryPerimeter=0;startArrow=classic;startFill=1;strokeColor=#009900;endArrow=none;endFill=0;" parent="77e6c97f196da883-1" source="77e6c97f196da883-17" target="kV-ekZ2A5MsylM_IOJq5-100" edge="1">
          <mxGeometry relative="1" as="geometry">
            <Array as="points">
              <mxPoint x="630" y="400" />
              <mxPoint x="830" y="400" />
              <mxPoint x="830" y="350" />
            </Array>
          </mxGeometry>
        </mxCell>
        <mxCell id="kV-ekZ2A5MsylM_IOJq5-112" style="edgeStyle=orthogonalEdgeStyle;curved=1;orthogonalLoop=1;jettySize=auto;html=1;exitX=0;exitY=0;exitDx=0;exitDy=30;exitPerimeter=0;entryX=1;entryY=0.5;entryDx=0;entryDy=0;startArrow=none;startFill=0;endArrow=classic;endFill=1;strokeColor=#990099;" parent="77e6c97f196da883-1" source="kV-ekZ2A5MsylM_IOJq5-101" target="kV-ekZ2A5MsylM_IOJq5-84" edge="1">
          <mxGeometry relative="1" as="geometry" />
        </mxCell>
        <mxCell id="kV-ekZ2A5MsylM_IOJq5-113" style="edgeStyle=orthogonalEdgeStyle;curved=1;orthogonalLoop=1;jettySize=auto;html=1;exitX=0;exitY=0;exitDx=0;exitDy=30;exitPerimeter=0;entryX=1;entryY=0.5;entryDx=0;entryDy=0;startArrow=none;startFill=0;endArrow=classic;endFill=1;strokeColor=#990099;" parent="77e6c97f196da883-1" source="kV-ekZ2A5MsylM_IOJq5-101" target="kV-ekZ2A5MsylM_IOJq5-93" edge="1">
          <mxGeometry relative="1" as="geometry">
            <Array as="points">
              <mxPoint x="850" y="520" />
              <mxPoint x="850" y="340" />
            </Array>
          </mxGeometry>
        </mxCell>
      </root>
    </mxGraphModel>
  </diagram>
</mxfile>
